<?xml version="1.0" encoding="UTF-8"?>
<!DOCTYPE svg PUBLIC "-//W3C//DTD SVG 1.1//EN" "http://www.w3.org/Graphics/SVG/1.1/DTD/svg11.dtd">
<!-- Creator: CorelDRAW -->
<svg xmlns="http://www.w3.org/2000/svg" xml:space="preserve" width="1.60728in" height="0.323579in" style="shape-rendering:geometricPrecision; text-rendering:geometricPrecision; image-rendering:optimizeQuality; fill-rule:evenodd; clip-rule:evenodd"
viewBox="0 0 0.395483 0.0796187"
 xmlns:xlink="http://www.w3.org/1999/xlink">
 <defs>
  <style type="text/css">
   <![CDATA[
    .fil0 {fill:white;fill-rule:nonzero}
   ]]>
  </style>
 </defs>
 <g id="Layer_x0020_1">
  <metadata id="CorelCorpID_0Corel-Layer"/>
  <path class="fil0" d="M0.029924 0.0796178c0.0032772,-1.84058e-005 0.00622989,-0.000450458 0.00885901,-0.00129616 0.00264656,-0.000865074 0.00502285,-0.00207114 0.00712983,-0.00363757 0.00208858,-0.00156643 0.00396113,-0.00340314 0.00561765,-0.005545l-0.0108032 -0.0111278c-0.00126031,0.00147634 -0.00262913,0.00268337 -0.00406962,0.00358332 -0.00143953,0.000899948 -0.0031503,0.00136881 -0.00511294,0.00138625 -0.00207017,-1.74371e-005 -0.00385263,-0.00059383 -0.00536578,-0.00174662 -0.00151218,-0.00113438 -0.00270081,-0.00275409 -0.00352907,-0.00482523 -0.000828262,-0.00208858 -0.00124191,-0.00453752 -0.00126031,-0.00736427l0 -0.000323555c1.84058e-005,-0.00264656 0.000432052,-0.00498798 0.00126031,-0.0070039 0.000828262,-0.00201689 0.00198105,-0.00360076 0.00345739,-0.00475355 0.00149475,-0.00115182 0.00322296,-0.00172821 0.00522144,-0.00174662 0.00198008,1.84058e-005 0.00367341,0.000467895 0.00509551,0.00135041 0.00142209,0.000882511 0.00270081,0.00208858 0.00387103,0.00361917l0.0111268 -0.0117749c-0.00158387,-0.0020353 -0.00338473,-0.00378094 -0.00541906,-0.00523985 -0.0020353,-0.00145793 -0.0043399,-0.00259231 -0.00687796,-0.00338473 -0.00253903,-0.000792419 -0.00534738,-0.00120607 -0.0084444,-0.00120607 -0.0041229,1.74371e-005 -0.00788641,0.000774013 -0.0112895,0.0022862 -0.00338473,0.00149475 -0.00633741,0.00358332 -0.00880379,0.00630157 -0.00246735,0.00270081 -0.00439318,0.00588793 -0.00572615,0.00954293 -0.00135041,0.00367245 -0.00203433,0.00767038 -0.00205273,0.0120093l0 0.00118863c1.84058e-005,0.00432052 0.00068489,0.00828165 0.00198105,0.0118824 0.00131456,0.00361917 0.00316871,0.00675203 0.00558181,0.009417 0.00241213,0.00264656 0.00525728,0.0047177 0.00857033,0.00617564 0.00331305,0.00147634 0.00696709,0.00221451 0.0109825,0.00223292z"/>
  <path id="1" class="fil0" d="M0.0723659 0.0796178c0.00417715,-1.84058e-005 0.00801234,-0.000774013 0.0114697,-0.00225132 0.00347483,-0.00147634 0.00648176,-0.00354651 0.00903823,-0.00621148 0.00253903,-0.00268241 0.00450168,-0.00583368 0.00588793,-0.00945284 0.00140369,-0.0036182 0.00210601,-0.00757932 0.00212442,-0.0119008l0 -0.00162068c-1.84058e-005,-0.00433893 -0.000720733,-0.00831846 -0.00210698,-0.0119367 -0.00140369,-0.00361917 -0.00334889,-0.00675203 -0.00588696,-0.00939859 -0.00252063,-0.00264753 -0.00551012,-0.0046993 -0.00896654,-0.0061582 -0.00343898,-0.00145793 -0.00721993,-0.00219611 -0.0113438,-0.00221451 -0.00415875,1.84058e-005 -0.0079581,0.000774013 -0.0114145,0.00225035 -0.00345739,0.0014589 -0.00644591,0.00354748 -0.00898495,0.00621245 -0.00253807,0.00268241 -0.00450071,0.00583368 -0.00588696,0.00945187 -0.00140465,0.00361917 -0.00210698,0.00758029 -0.00212539,0.0119018l0 0.00162068c1.84058e-005,0.00433893 0.000720733,0.00831749 0.00208858,0.0119367 0.00138722,0.00361917 0.00333145,0.00675203 0.00585208,0.00939859 0.00252063,0.00264656 0.00549172,0.0046993 0.0089307,0.0061582 0.00342058,0.00145793 0.00720152,0.00219611 0.0113244,0.00221451zm0.000216026 -0.0163124c-0.00199848,-1.84058e-005 -0.00372669,-0.000612236 -0.00518463,-0.00178246 -0.00147634,-0.00117022 -0.00261072,-0.0027909 -0.00342155,-0.00486204 -0.000809856,-0.00207017 -0.00120607,-0.00446486 -0.00122447,-0.00718408l0 -0.000971634c0,-0.00271922 0.00039621,-0.00511391 0.00115279,-0.00716568 0.000756576,-0.00205273 0.00187255,-0.00365501 0.00331305,-0.00480779 0.0014405,-0.00115182 0.00320455,-0.00172821 0.00525728,-0.00174662 0.00199848,1.84058e-005 0.00372669,0.000612236 0.0051856,0.00178246 0.00147634,0.00117022 0.00261072,0.0027909 0.00342058,0.00486107 0.000809856,0.00207114 0.00122447,0.00446583 0.00122447,0.00718408l0 0.000972602c0,0.00271922 -0.00039621,0.00511294 -0.00117022,0.00716568 -0.000774013,0.00205273 -0.00189096,0.00365501 -0.00334889,0.00478939 -0.0014405,0.00115279 -0.00316871,0.00174662 -0.005204,0.00176502z"/>
  <path id="12" class="fil0" d="M0.118697 0.0794017c0.00253903,-1.84058e-005 0.00475355,-0.000432052 0.00664353,-0.00120703 0.00190839,-0.00079145 0.00356492,-0.00183574 0.00500541,-0.00313286 0.0014405,-0.00129616 0.00273665,-0.00273665 0.00390688,-0.00430309l0 0.00745436 0.0189057 0 0 -0.0782131 -0.0189057 0 0 0.0267911c-0.00113438,-0.0014589 -0.00243054,-0.00280931 -0.00387103,-0.00405122 -0.0014405,-0.00124191 -0.00311446,-0.00223292 -0.00504126,-0.00298852 -0.0019268,-0.000756576 -0.00417715,-0.00115279 -0.00675203,-0.00117022 -0.00293428,0 -0.00570677,0.000612236 -0.0083359,0.00183574 -0.00261072,0.00120703 -0.00493373,0.00306118 -0.00694965,0.00551012 -0.00201689,0.00244797 -0.00360076,0.00552756 -0.00477195,0.00923585 -0.00115182,0.00370926 -0.00174565,0.00804819 -0.00176405,0.0130178l0 0.0019452c1.84058e-005,0.00487851 0.000612236,0.00916416 0.00176405,0.0128192 0.00117119,0.00367341 0.00275506,0.00671619 0.00478939,0.00914672 0.00201689,0.00244797 0.00435734,0.00426724 0.00698646,0.00549075 0.00262816,0.00120703 0.00541906,0.00181927 0.00839015,0.00181927zm0.00637326 -0.0162049c-0.00188999,-1.74371e-005 -0.00354651,-0.000576393 -0.0049686,-0.00169237 -0.00142306,-0.00111597 -0.00252063,-0.00270081 -0.00331305,-0.0047177 -0.000810825,-0.00201592 -0.00120607,-0.00437477 -0.00122447,-0.00709302l0 -0.00140465c1.84058e-005,-0.00271922 0.000413647,-0.00507807 0.00122447,-0.0071124 0.000792419,-0.00201592 0.00188999,-0.00358235 0.00331305,-0.0046993 0.00142209,-0.00111597 0.00307862,-0.00167396 0.0049686,-0.00169237 0.00181927,1.84058e-005 0.00343898,0.000576393 0.00484364,0.00169237 0.00140465,0.00111694 0.00252063,0.00268337 0.00331305,0.0046993 0.000809856,0.00203433 0.00122447,0.00439318 0.00124191,0.0071124l0 0.00140465c-1.74371e-005,0.00271825 -0.000432052,0.0050771 -0.00124191,0.00709302 -0.000792419,0.00201689 -0.00190839,0.00360173 -0.00331305,0.0047177 -0.00140465,0.00111597 -0.00302437,0.00167493 -0.00484364,0.00169237z"/>
  <path class="fil0" d="M0.17194 0.0784301l0.00788641 0 0 -0.0494778 0.0145842 0 0 -0.00680531 -0.0146927 0 0 -0.0047177c0,-0.00354651 0.000720733,-0.00617564 0.00216123,-0.00792225 0.0014405,-0.00172821 0.00356492,-0.00259231 0.00637326,-0.00259231 0.00106269,0 0.00212442,0.000107529 0.00315127,0.000287712 0.00102588,0.000198589 0.00210601,0.000450458 0.00322296,0.000774013l0 -0.0068954c-0.00106269,-0.000324524 -0.00219707,-0.000594799 -0.00340314,-0.000792419 -0.00120607,-0.000180183 -0.00255647,-0.000287712 -0.00405122,-0.000287712 -0.00232301,0 -0.00439318,0.000341961 -0.00622989,0.00102588 -0.0018183,0.000683922 -0.00338473,0.00167493 -0.00468089,0.00297109 -0.00136881,0.00140465 -0.0024131,0.00320455 -0.00316871,0.00538322 -0.000756576,0.00217867 -0.00113438,0.0047177 -0.00115279,0.00761613l0 0.00514975 -0.00691381 0 0 0.00680531 0.00691381 0 0 0.0494778z"/>
  <path id="1" class="fil0" d="M0.21101 0.0796187c0.0027725,-1.84058e-005 0.00523985,-0.000432052 0.00740011,-0.00126031 0.00217867,-0.000828262 0.00406866,-0.0019452 0.00568934,-0.00334889 0.00162068,-0.00140465 0.00297109,-0.00300693 0.00408706,-0.00478939l0 0.00820996 0.00767038 0 0 -0.0361897c0,-0.00329464 -0.000467895,-0.00622989 -0.00140465,-0.00878636 -0.000918354,-0.00255647 -0.00225035,-0.0047177 -0.00399697,-0.00644591 -0.00183671,-0.00183671 -0.00406866,-0.00324136 -0.00671619,-0.00419556 -0.00262816,-0.000935791 -0.00565349,-0.00142209 -0.00905566,-0.00142209 -0.00343898,1.84058e-005 -0.00659025,0.000450458 -0.00947125,0.00129616 -0.002881,0.000828262 -0.00561765,0.00190839 -0.00824581,0.00324136l0.00248479 0.00637326c0.00194424,-0.00106173 0.0041229,-0.00194424 0.00653504,-0.00266497 0.0024131,-0.000719764 0.00502382,-0.00109757 0.00783216,-0.00111597 0.00304374,0 0.00561765,0.00054055 0.00776048,0.00160228 0.00214283,0.00104429 0.00376351,0.00261072 0.00489789,0.00468186 0.00113341,0.00207017 0.0017098,0.00462664 0.0017098,0.00765198l0 0.00334889c-0.00138625,-0.000432052 -0.00282675,-0.000828262 -0.00430309,-0.00117022 -0.00147634,-0.000341961 -0.00304277,-0.000594799 -0.00471673,-0.000792419 -0.00165652,-0.00019762 -0.00347579,-0.000306118 -0.00545587,-0.000306118 -0.00415875,1.84058e-005 -0.00779632,0.000719764 -0.0108933,0.00214283 -0.00309702,0.00140369 -0.00550915,0.00345642 -0.00723736,0.00615723 -0.00171077,0.00270081 -0.00257488,0.00597802 -0.00261072,0.00984905l0 0.000432052c1.74371e-005,0.0027909 0.000522144,0.00525728 0.00149378,0.00743595 0.000972602,0.00216026 0.00232301,0.00399697 0.00399697,0.00549172 0.00169334,0.00149378 0.00361917,0.00262816 0.00576199,0.00340314 0.00216026,0.000774013 0.00441158,0.00117022 0.00678787,0.00117022zm0.00172821 -0.00648176c-0.00225035,-1.84058e-005 -0.00428468,-0.000486301 -0.00608555,-0.00140465 -0.0017999,-0.000936759 -0.00322296,-0.00225035 -0.00428468,-0.00396113 -0.00106269,-0.00171077 -0.00160324,-0.00372669 -0.00162068,-0.00608555l0 -0.000324524c0,-0.00239469 0.000539581,-0.00446486 0.00162068,-0.00622989 0.00108013,-0.00174565 0.00264656,-0.00311446 0.00471673,-0.00408706 0.00207114,-0.000954197 0.00460921,-0.00143953 0.0075987,-0.00145793 0.00275409,1.84058e-005 0.00527472,0.000234432 0.00754348,0.000648079 0.00226876,0.000414615 0.00428565,0.000954197 0.00606811,0.00162068l0 0.00702134c-1.84058e-005,0.00207114 -0.000414615,0.00396113 -0.00120703,0.00570774 -0.000809856,0.00174662 -0.00190839,0.0032588 -0.00333048,0.00453752 -0.00142209,0.00129616 -0.00306118,0.0022862 -0.00493373,0.00298852 -0.00188999,0.000702327 -0.00390688,0.00104429 -0.00608555,0.00102685z"/>
  <path id="12" class="fil0" d="M0.271253 0.0795102c0.00289843,0 0.00567093,-0.000629673 0.0083359,-0.00185414 0.00268337,-0.00124288 0.00507807,-0.00307862 0.00720249,-0.00551012 0.00210601,-0.00243054 0.00379838,-0.00541906 0.00502285,-0.00900238 0.00124288,-0.00356492 0.00189096,-0.00768782 0.00190839,-0.0123687l0 -0.0010811c-1.74371e-005,-0.00468089 -0.000665516,-0.00880379 -0.00190839,-0.0123513 -0.00122447,-0.00356492 -0.00291684,-0.00655344 -0.00502285,-0.00896654 -0.00212442,-0.00241213 -0.00451911,-0.00423043 -0.00720249,-0.00547331 -0.00266497,-0.00122447 -0.00543747,-0.00183671 -0.0083359,-0.00183671 -0.00293524,3.68116e-005 -0.00554596,0.000576393 -0.00783216,0.00165652 -0.00226876,0.0010811 -0.00426724,0.00252063 -0.00597802,0.00430309 -0.0017098,0.00180086 -0.00320455,0.00376351 -0.00444743,0.00592377l0 -0.0325163 -0.00777791 0 0 0.0779971 0.00777791 0 0 -0.0104787c0.00120703,0.00208858 0.00266497,0.00399697 0.00437574,0.00572518 0.00169237,0.00174662 0.00369085,0.00315127 0.00597802,0.004213 0.0022862,0.00104429 0.00493276,0.00158484 0.00790385,0.00162068zm-0.00151218 -0.00702134c-0.00223292,0 -0.00437574,-0.000522144 -0.00641007,-0.00153059 -0.00203433,-0.000990039 -0.00385263,-0.00244894 -0.00545587,-0.00432149 -0.00158387,-0.00188999 -0.00286259,-0.00415875 -0.00378094,-0.00682372 -0.000935791,-0.00264656 -0.00140369,-0.00561765 -0.00142209,-0.0089307l0 -0.00108013c1.84058e-005,-0.00331305 0.000486301,-0.00628413 0.00142209,-0.00894814 0.000918354,-0.00266497 0.00219707,-0.00495213 0.00378094,-0.00686053 0.00160324,-0.00188999 0.00342155,-0.00334889 0.00545587,-0.00437477 0.00203433,-0.00100845 0.00417715,-0.00153059 0.00641007,-0.00153059 0.00217867,0 0.00423043,0.000503738 0.00613979,0.00147634 0.00192583,0.000990039 0.0036182,0.0024131 0.00509454,0.00428565 0.00147634,0.00187255 0.00262913,0.00415875 0.00347579,0.00685956 0.000845699,0.00270081 0.00126031,0.00576199 0.00127775,0.00920097l0 0.000864105c-1.74371e-005,0.00345642 -0.000432052,0.00653504 -0.00124191,0.00921841 -0.000828262,0.00270081 -0.00196264,0.00496957 -0.00342155,0.00682372 -0.00145793,0.00185414 -0.0031503,0.0032588 -0.00509551,0.0042314 -0.00192583,0.000954197 -0.00399697,0.0014405 -0.00622892,0.0014405z"/>
  <path id="123" class="fil0" d="M0.30114 0.0784301l0.00777791 0 0 -0.0267911c1.84058e-005,-0.00361917 0.000504707,-0.00678787 0.00147731,-0.00952453 0.000971634,-0.00271922 0.00232204,-0.00498798 0.00405025,-0.00682372 0.00172918,-0.00181927 0.00372766,-0.00318711 0.00599642,-0.00410547 0.0022862,-0.000918354 0.00475258,-0.00136881 0.0073817,-0.00136881l0.000432052 0 0 -0.00842599c-0.00306118,-0.000125935 -0.00585111,0.000377804 -0.00835431,0.00147634 -0.00250222,0.00109854 -0.00466345,0.00266497 -0.0065176,0.00468089 -0.00185511,0.0020353 -0.00334889,0.00437574 -0.00446583,0.00702231l0 -0.012423 -0.00777791 0 0 0.0562831z"/>
  <path id="1234" class="fil0" d="M0.333511 0.0105872l0.00864299 0 0 -0.00918257 -0.00864299 0 0 0.00918257zm0.000432052 0.0678429l0.00777888 0 0 -0.0562831 -0.00777888 0 0 0.0562831z"/>
  <polygon id="12345" class="fil0" points="0.352594,0.0784301 0.360372,0.0784301 0.360372,0.0628743 0.369663,0.0519625 0.3863,0.0784301 0.395483,0.0784301 0.374957,0.0458053 0.394726,0.022147 0.385328,0.022147 0.360372,0.0528266 0.360372,0.000433021 0.352594,0.000433021 "/>
 </g>
</svg>
