<?xml version="1.0" encoding="utf-8"?>
<!-- Generator: Adobe Illustrator 16.0.0, SVG Export Plug-In . SVG Version: 6.00 Build 0)  -->
<!DOCTYPE svg PUBLIC "-//W3C//DTD SVG 1.1//EN" "http://www.w3.org/Graphics/SVG/1.1/DTD/svg11.dtd" [
	<!ENTITY ns_flows "http://ns.adobe.com/Flows/1.0/">
	<!ENTITY ns_extend "http://ns.adobe.com/Extensibility/1.0/">
	<!ENTITY ns_ai "http://ns.adobe.com/AdobeIllustrator/10.0/">
	<!ENTITY ns_graphs "http://ns.adobe.com/Graphs/1.0/">
]>
<svg version="1.1" id="Layer_1" xmlns:x="&ns_extend;" xmlns:i="&ns_ai;" xmlns:graph="&ns_graphs;"
	 xmlns="http://www.w3.org/2000/svg" xmlns:xlink="http://www.w3.org/1999/xlink" xmlns:a="http://ns.adobe.com/AdobeSVGViewerExtensions/3.0/"
	 x="0px" y="0px" width="100px" height="100px" viewBox="0 0 100 100" enable-background="new 0 0 100 100" xml:space="preserve">
<rect x="23" y="13" display="none" fill="#2C3737" width="60" height="68"/>
<polygon fill="#ADC1C2" points="34,63 34,70 67,70 67,57 57.708,62.084 57.688,57 48,62 48,57 "/>
<rect x="68" y="53" fill="#ADC1C2" width="6" height="17"/>
<path fill="#ADC1C2" d="M68,52h5.458c0,0,0.604-5.813-1.396-7.375s-5.188-1.125-5.938-2.313s0.188-5.688-1.5-7.563
	s-2.188-2.125-4.063-2.688c0,0,0.063-5.75-4.438-4.438S52.313,33,53,33.875c0,0-2.739,2.426-0.917,6.25
	c1.292,2.71,3.292,4.063,4.979,3.75s2.229,0.25,3.125,1.625s3.956,2.143,5.961,2.021C68.542,47.375,68,52,68,52z"/>
</svg>
